<?xml version="1.0" encoding="UTF-8"?>
<svg xmlns="http://www.w3.org/2000/svg" xmlns:xlink="http://www.w3.org/1999/xlink" width="40pt" height="40pt" viewBox="0 0 40 40" version="1.1">
<g id="surface1">
<path style=" stroke:none;fill-rule:nonzero;fill:rgb(0%,0%,0%);fill-opacity:1;" d="M 16.109375 4.042969 L 14.785156 5.773438 L 14.785156 22.5 L 16.109375 24.226562 L 17.433594 25.992188 L 18.730469 24.265625 L 20.027344 22.574219 L 20.054688 14.117188 L 20.070312 5.660156 L 19.699219 5.21875 C 19.484375 5 18.890625 4.226562 18.375 3.566406 L 17.433594 2.316406 Z M 18.660156 5.773438 L 19.714844 7.09375 L 19.714844 14.007812 C 19.714844 18.492188 19.679688 20.992188 19.617188 21.140625 C 19.566406 21.285156 19.058594 22.023438 18.488281 22.757812 L 17.441406 24.117188 L 16.3125 22.648438 L 15.1875 21.214844 L 15.1875 7.132812 L 16.191406 5.773438 C 16.730469 5.035156 17.28125 4.449219 17.398438 4.410156 C 17.511719 4.410156 18.082031 5.035156 18.660156 5.773438 Z M 18.660156 5.773438 "/>
<path style=" stroke:none;fill-rule:nonzero;fill:rgb(0%,0%,0%);fill-opacity:1;" d="M 16.945312 9.191406 L 16.472656 10.992188 L 16.75 11.03125 C 16.925781 11.03125 17.097656 10.699219 17.230469 10.109375 L 17.441406 9.191406 L 17.683594 10.148438 C 17.84375 10.773438 17.992188 11.03125 18.152344 10.957031 C 18.367188 10.84375 18.355469 10.773438 17.894531 9.082031 L 17.414062 7.351562 Z M 16.945312 9.191406 "/>
<path style=" stroke:none;fill-rule:nonzero;fill:rgb(0%,0%,0%);fill-opacity:1;" d="M 17.363281 13.566406 C 16.730469 14.523438 16.464844 15.109375 16.449219 15.589844 C 16.410156 16.359375 16.386719 16.359375 17.621094 14.523438 C 18.144531 13.75 18.417969 13.125 18.4375 12.71875 C 18.464844 11.910156 18.390625 11.984375 17.363281 13.566406 Z M 17.363281 13.566406 "/>
<path style=" stroke:none;fill-rule:nonzero;fill:rgb(0%,0%,0%);fill-opacity:1;" d="M 16.953125 19.117188 L 17.441406 20.882812 L 17.894531 19.191406 C 18.332031 17.574219 18.339844 17.464844 18.136719 17.351562 C 17.992188 17.28125 17.832031 17.535156 17.683594 18.160156 L 17.441406 19.117188 L 17.230469 18.199219 C 17.097656 17.609375 16.925781 17.28125 16.75 17.28125 L 16.472656 17.316406 Z M 16.953125 19.117188 "/>
<path style=" stroke:none;fill-rule:nonzero;fill:rgb(0%,0%,0%);fill-opacity:1;" d="M 0.445312 7.167969 L 0.445312 8.457031 L 1.863281 8.457031 C 2.648438 8.457031 3.285156 8.566406 3.285156 8.714844 C 3.285156 8.859375 2.664062 11.542969 1.910156 14.707031 C 0.550781 20.367188 0.335938 21.65625 0.675781 22.207031 C 0.753906 22.316406 1.6875 22.425781 2.761719 22.425781 L 4.707031 22.425781 L 4.707031 19.484375 L 1.742188 19.484375 L 3.136719 13.675781 C 3.898438 10.476562 4.53125 7.609375 4.53125 7.316406 C 4.53125 5.992188 4.351562 5.882812 2.378906 5.882812 L 0.445312 5.882812 Z M 0.445312 7.167969 "/>
<path style=" stroke:none;fill-rule:nonzero;fill:rgb(0%,0%,0%);fill-opacity:1;" d="M 5.328125 14.15625 L 5.328125 22.425781 L 8.792969 22.425781 L 8.792969 19.484375 L 5.941406 19.484375 L 5.96875 14.042969 L 5.996094 8.640625 L 7.398438 8.53125 L 8.792969 8.417969 L 8.792969 5.882812 L 5.328125 5.882812 Z M 5.328125 14.15625 "/>
<path style=" stroke:none;fill-rule:nonzero;fill:rgb(0%,0%,0%);fill-opacity:1;" d="M 9.503906 14.117188 L 9.503906 22.425781 L 10.214844 22.425781 L 10.214844 8.382812 L 11.570312 8.492188 C 12.683594 8.601562 12.976562 8.75 13.171875 9.300781 C 13.648438 10.589844 13.589844 13.34375 13.054688 14.410156 C 12.816406 14.925781 12.511719 15.074219 11.707031 15.074219 L 10.65625 15.074219 L 10.65625 17.648438 L 12.132812 17.648438 L 12.699219 20.035156 C 13.269531 22.390625 13.277344 22.425781 13.757812 22.425781 L 14.246094 22.425781 L 13.675781 20.035156 C 13.367188 18.75 13.136719 17.574219 13.160156 17.425781 C 13.195312 17.316406 13.347656 16.910156 13.515625 16.582031 C 13.917969 15.660156 14.15625 13.859375 14.15625 11.765625 C 14.15625 9.558594 13.90625 7.832031 13.453125 6.839844 C 13.136719 6.140625 12.921875 6.066406 11.304688 5.957031 L 9.503906 5.84375 Z M 9.503906 14.117188 "/>
<path style=" stroke:none;fill-rule:nonzero;fill:rgb(0%,0%,0%);fill-opacity:1;" d="M 21.902344 6.25 C 21.527344 6.726562 21.101562 8.050781 20.863281 9.484375 C 20.675781 10.589844 20.648438 11.214844 20.648438 13.785156 C 20.648438 16.46875 20.675781 16.949219 20.914062 18.601562 C 21.09375 19.742188 21.332031 20.734375 21.582031 21.324219 C 21.945312 22.167969 22.085938 22.242188 23.292969 22.351562 C 24.015625 22.425781 24.652344 22.425781 24.714844 22.316406 C 24.859375 22.09375 24.804688 19.558594 24.664062 19.59375 C 24.601562 19.59375 23.988281 19.558594 23.285156 19.558594 L 22.015625 19.484375 L 21.652344 18.089844 C 21.324219 16.800781 21.277344 16.433594 21.253906 14.667969 C 21.207031 12.09375 21.410156 10.441406 21.9375 9.300781 C 22.28125 8.53125 22.441406 8.457031 23.597656 8.457031 L 24.867188 8.457031 L 24.867188 5.882812 L 23.515625 5.917969 C 22.769531 5.917969 22.042969 6.101562 21.902344 6.25 Z M 21.902344 6.25 "/>
<path style=" stroke:none;fill-rule:nonzero;fill:rgb(0%,0%,0%);fill-opacity:1;" d="M 26.722656 6.398438 C 25.824219 7.71875 25.453125 10.21875 25.507812 14.523438 C 25.53125 16.839844 25.578125 17.464844 25.808594 18.824219 C 25.949219 19.707031 26.253906 20.808594 26.464844 21.324219 C 26.839844 22.167969 26.953125 22.242188 28.019531 22.242188 C 29.085938 22.242188 29.199219 22.167969 29.574219 21.324219 C 29.785156 20.808594 30.089844 19.667969 30.238281 18.824219 C 30.488281 17.316406 30.507812 16.984375 30.507812 14.007812 C 30.507812 11.214844 30.480469 10.625 30.292969 9.484375 C 30.035156 7.976562 29.628906 6.726562 29.210938 6.25 C 28.773438 5.734375 27.105469 5.808594 26.722656 6.398438 Z M 28.898438 8.824219 C 29.101562 9.007812 29.378906 9.667969 29.566406 10.441406 C 29.867188 11.691406 29.882812 11.910156 29.882812 14.191406 C 29.882812 16.542969 29.875 16.617188 29.511719 18.050781 L 29.136719 19.484375 L 26.902344 19.484375 L 26.527344 18.050781 C 26.164062 16.617188 26.15625 16.542969 26.15625 14.191406 C 26.15625 12.058594 26.179688 11.691406 26.421875 10.625 C 26.570312 10 26.8125 9.265625 26.953125 8.96875 C 27.253906 8.417969 28.382812 8.308594 28.898438 8.824219 Z M 28.898438 8.824219 "/>
<path style=" stroke:none;fill-rule:nonzero;fill:rgb(0%,0%,0%);fill-opacity:1;" d="M 31.351562 14.191406 L 31.351562 22.5 L 32.796875 22.351562 C 34.351562 22.242188 34.519531 22.058594 35.027344 19.964844 C 35.835938 16.65625 35.800781 10.734375 34.957031 7.832031 C 34.476562 6.214844 34.09375 5.882812 32.648438 5.882812 L 31.351562 5.882812 Z M 34.429688 9.816406 C 35.195312 12.351562 35.117188 17.132812 34.28125 18.933594 C 34.09375 19.339844 33.730469 19.484375 32.992188 19.484375 L 31.972656 19.484375 L 31.972656 16.984375 C 31.972656 15.625 32 13.125 32.035156 11.433594 L 32.085938 8.382812 L 33.089844 8.53125 C 34.058594 8.675781 34.113281 8.75 34.429688 9.816406 Z M 34.429688 9.816406 "/>
<path style=" stroke:none;fill-rule:nonzero;fill:rgb(0%,0%,0%);fill-opacity:1;" d="M 36.234375 14.15625 L 36.234375 22.425781 L 39.707031 22.425781 L 39.679688 21.03125 L 39.652344 19.667969 L 36.847656 19.449219 L 36.875 14.042969 L 36.902344 8.640625 L 38.304688 8.53125 L 39.699219 8.417969 L 39.699219 5.882812 L 36.234375 5.882812 Z M 36.234375 14.15625 "/>
<path style=" stroke:none;fill-rule:nonzero;fill:rgb(0%,0%,0%);fill-opacity:1;" d="M 6.304688 14.15625 L 6.304688 15.441406 L 8.613281 15.441406 L 8.613281 12.867188 L 6.304688 12.867188 Z M 6.304688 14.15625 "/>
<path style=" stroke:none;fill-rule:nonzero;fill:rgb(0%,0%,0%);fill-opacity:1;" d="M 37.230469 14.042969 L 37.253906 15.257812 L 38.390625 15.367188 L 39.519531 15.476562 L 39.519531 12.867188 L 37.203125 12.867188 Z M 37.230469 14.042969 "/>
<path style=" stroke:none;fill-rule:nonzero;fill:rgb(0%,0%,0%);fill-opacity:1;" d="M 8.785156 30.183594 C 8.339844 30.882812 8.195312 34.042969 8.535156 35.808594 C 8.765625 36.984375 9.28125 37.132812 9.601562 36.066406 C 9.777344 35.476562 9.8125 35.035156 9.8125 33.308594 C 9.8125 31.984375 9.769531 31.066406 9.679688 30.734375 C 9.503906 30 9.066406 29.707031 8.785156 30.183594 Z M 9.394531 31.101562 C 9.636719 31.800781 9.671875 34.339844 9.441406 35.367188 C 9.261719 36.175781 8.941406 36.214844 8.757812 35.441406 C 8.535156 34.523438 8.570312 31.800781 8.808594 31.101562 C 8.917969 30.773438 9.050781 30.515625 9.101562 30.515625 C 9.15625 30.515625 9.289062 30.773438 9.394531 31.101562 Z M 9.394531 31.101562 "/>
<path style=" stroke:none;fill-rule:nonzero;fill:rgb(0%,0%,0%);fill-opacity:1;" d="M 10.878906 30.367188 C 10.710938 30.734375 10.605469 30.773438 10.585938 30.550781 C 10.570312 30.332031 10.515625 30.148438 10.46875 30.148438 C 10.425781 30.148438 10.390625 32.207031 10.390625 34.742188 C 10.390625 38.566406 10.410156 39.339844 10.523438 39.339844 C 10.621094 39.339844 10.65625 38.898438 10.65625 37.683594 C 10.65625 36.140625 10.675781 36.03125 10.824219 36.398438 C 11.367188 37.574219 11.765625 36.214844 11.765625 33.199219 C 11.765625 31.542969 11.730469 31.066406 11.554688 30.476562 C 11.304688 29.632812 11.226562 29.632812 10.878906 30.367188 Z M 11.367188 31.25 C 11.707031 32.648438 11.519531 36.03125 11.117188 36.03125 C 10.667969 36.03125 10.460938 32.242188 10.851562 31.101562 C 11.109375 30.367188 11.15625 30.367188 11.367188 31.25 Z M 11.367188 31.25 "/>
<path style=" stroke:none;fill-rule:nonzero;fill:rgb(0%,0%,0%);fill-opacity:1;" d="M 12.648438 30.21875 C 12.238281 31.03125 12.121094 34.15625 12.441406 35.808594 C 12.585938 36.542969 12.699219 36.765625 12.964844 36.765625 C 13.339844 36.765625 13.589844 36.46875 13.589844 36.03125 C 13.589844 35.882812 13.410156 35.84375 13.1875 35.957031 C 12.734375 36.140625 12.523438 35.660156 12.523438 34.339844 C 12.523438 33.492188 12.550781 33.457031 13.097656 33.457031 C 13.417969 33.457031 13.675781 33.308594 13.675781 33.125 C 13.675781 32.09375 13.445312 30.40625 13.257812 30.109375 C 12.992188 29.707031 12.886719 29.707031 12.648438 30.21875 Z M 13.25 31.140625 C 13.542969 32.207031 13.445312 32.71875 12.964844 32.71875 C 12.488281 32.71875 12.414062 32.351562 12.671875 31.175781 C 12.851562 30.367188 13.039062 30.332031 13.25 31.140625 Z M 13.25 31.140625 "/>
<path style=" stroke:none;fill-rule:nonzero;fill:rgb(0%,0%,0%);fill-opacity:1;" d="M 14.652344 30.40625 C 14.503906 30.84375 14.429688 30.882812 14.40625 30.589844 C 14.386719 30.332031 14.332031 30.148438 14.289062 30.148438 C 14.246094 30.148438 14.210938 31.617188 14.210938 33.457031 C 14.210938 35.40625 14.246094 36.765625 14.296875 36.765625 C 14.351562 36.765625 14.386719 35.734375 14.386719 34.410156 C 14.386719 32.28125 14.414062 31.949219 14.617188 31.285156 C 14.902344 30.367188 14.957031 30.332031 15.132812 31.101562 C 15.238281 31.507812 15.273438 32.390625 15.273438 34.226562 C 15.273438 36.324219 15.300781 36.765625 15.417969 36.765625 C 15.542969 36.765625 15.558594 36.359375 15.523438 33.96875 C 15.496094 31.582031 15.460938 31.066406 15.285156 30.476562 C 15.027344 29.632812 14.929688 29.59375 14.652344 30.40625 Z M 14.652344 30.40625 "/>
<path style=" stroke:none;fill-rule:nonzero;fill:rgb(0%,0%,0%);fill-opacity:1;" d="M 17.15625 30.183594 C 16.988281 30.441406 16.953125 30.734375 16.980469 31.691406 C 17 32.683594 17.070312 33.015625 17.335938 33.53125 C 17.734375 34.300781 17.816406 34.78125 17.664062 35.515625 C 17.585938 35.957031 17.449219 36.066406 17.210938 35.917969 C 16.875 35.734375 16.75 36.140625 17.015625 36.542969 C 17.273438 36.949219 17.65625 36.765625 17.796875 36.175781 C 18.054688 35.109375 17.976562 33.898438 17.59375 33.089844 C 17.167969 32.207031 17.085938 31.765625 17.238281 31.03125 C 17.316406 30.625 17.433594 30.515625 17.601562 30.660156 C 17.894531 30.917969 17.941406 30.332031 17.65625 30 C 17.40625 29.742188 17.414062 29.742188 17.15625 30.183594 Z M 17.15625 30.183594 "/>
<path style=" stroke:none;fill-rule:nonzero;fill:rgb(0%,0%,0%);fill-opacity:1;" d="M 18.773438 30.21875 C 18.367188 31.03125 18.25 34.15625 18.570312 35.808594 C 18.710938 36.542969 18.828125 36.765625 19.09375 36.765625 C 19.53125 36.765625 19.796875 35.84375 19.867188 34.117188 C 19.980469 30.992188 19.40625 28.933594 18.773438 30.21875 Z M 19.449219 31.25 C 19.8125 32.757812 19.601562 36.03125 19.128906 36.03125 C 18.820312 36.03125 18.648438 35.074219 18.648438 33.273438 C 18.648438 32.023438 18.695312 31.542969 18.84375 31.101562 C 19.113281 30.332031 19.234375 30.367188 19.449219 31.25 Z M 19.449219 31.25 "/>
<path style=" stroke:none;fill-rule:nonzero;fill:rgb(0%,0%,0%);fill-opacity:1;" d="M 22.789062 30.40625 C 22.671875 30.882812 22.609375 30.957031 22.585938 30.589844 C 22.46875 29.300781 22.378906 30.515625 22.378906 33.457031 C 22.378906 36.140625 22.40625 36.765625 22.511719 36.765625 C 22.621094 36.765625 22.648438 36.285156 22.648438 34.523438 C 22.648438 31.839844 22.753906 30.882812 23.054688 30.882812 C 23.195312 30.882812 23.269531 30.699219 23.25 30.40625 C 23.1875 29.707031 22.976562 29.707031 22.789062 30.40625 Z M 22.789062 30.40625 "/>
<path style=" stroke:none;fill-rule:nonzero;fill:rgb(0%,0%,0%);fill-opacity:1;" d="M 23.925781 30.21875 C 23.292969 31.46875 23.480469 36.765625 24.15625 36.765625 C 24.511719 36.765625 24.6875 36.433594 24.6875 35.734375 C 24.6875 35.292969 24.664062 35.257812 24.582031 35.589844 C 24.429688 36.214844 24.101562 36.140625 23.941406 35.441406 C 23.855469 35.109375 23.800781 34.226562 23.800781 33.273438 C 23.800781 31.25 24.066406 30.257812 24.457031 30.84375 C 24.734375 31.285156 24.777344 30.734375 24.519531 30.148438 C 24.308594 29.707031 24.175781 29.707031 23.925781 30.21875 Z M 23.925781 30.21875 "/>
<path style=" stroke:none;fill-rule:nonzero;fill:rgb(0%,0%,0%);fill-opacity:1;" d="M 25.523438 30.21875 C 25.117188 31.03125 25 34.15625 25.320312 35.808594 C 25.460938 36.542969 25.578125 36.765625 25.84375 36.765625 C 26.214844 36.765625 26.464844 36.46875 26.464844 36.03125 C 26.464844 35.882812 26.289062 35.84375 26.066406 35.957031 C 25.613281 36.140625 25.398438 35.660156 25.398438 34.339844 C 25.398438 33.492188 25.425781 33.457031 25.976562 33.457031 C 26.296875 33.457031 26.554688 33.308594 26.554688 33.125 C 26.554688 32.09375 26.324219 30.40625 26.136719 30.109375 C 25.871094 29.707031 25.765625 29.707031 25.523438 30.21875 Z M 26.128906 31.140625 C 26.421875 32.207031 26.324219 32.71875 25.84375 32.71875 C 25.363281 32.71875 25.292969 32.351562 25.550781 31.175781 C 25.726562 30.367188 25.914062 30.332031 26.128906 31.140625 Z M 26.128906 31.140625 "/>
<path style=" stroke:none;fill-rule:nonzero;fill:rgb(0%,0%,0%);fill-opacity:1;" d="M 20.425781 32.832031 C 20.425781 35 20.460938 35.660156 20.585938 36.140625 C 20.765625 36.839844 21.179688 36.984375 21.269531 36.398438 C 21.296875 36.214844 21.386719 36.03125 21.457031 36.03125 C 21.527344 36.03125 21.5625 36.214844 21.535156 36.398438 C 21.511719 36.582031 21.546875 36.765625 21.617188 36.765625 C 21.730469 36.765625 21.757812 36.214844 21.757812 33.457031 C 21.757812 30.773438 21.730469 30.148438 21.625 30.148438 C 21.519531 30.148438 21.492188 30.660156 21.492188 32.464844 C 21.492188 34.265625 21.457031 34.964844 21.332031 35.40625 C 20.933594 36.910156 20.691406 35.882812 20.691406 32.648438 C 20.691406 30.660156 20.667969 30.148438 20.558594 30.148438 C 20.453125 30.148438 20.425781 30.699219 20.425781 32.832031 Z M 20.425781 32.832031 "/>
</g>
</svg>
